<svg width="133" height="28" viewBox="0 0 133 28" fill="none" xmlns="http://www.w3.org/2000/svg">
<g clip-path="url(#clip0_10608_958)">
<path d="M32.8054 12.7725V10.8749C32.8054 10.7284 32.9238 10.6098 33.07 10.6098H34.9638C35.11 10.6098 35.2283 10.4912 35.2283 10.3447V9.7405C35.2283 8.16379 35.6572 6.95404 36.5164 6.11126C37.3755 5.26709 38.5647 4.8457 40.0881 4.8457H43.2128C43.3618 4.8457 43.4802 4.96849 43.4774 5.1164L43.4384 6.96381C43.4356 7.10753 43.3173 7.22334 43.1738 7.22334H40.3833C39.6258 7.22334 39.0479 7.40194 38.6483 7.76054C38.2486 8.11774 38.0495 8.65494 38.0495 9.37074V10.3447C38.0495 10.4912 38.1679 10.6098 38.3141 10.6098H41.7646C41.9109 10.6098 42.0292 10.7284 42.0292 10.8749V12.7725C42.0292 12.9191 41.9109 13.0377 41.7646 13.0377H38.6845C38.5383 13.0377 38.4199 13.1563 38.4199 13.3028V23.0352C38.4199 23.1817 38.3015 23.3003 38.1553 23.3003H35.8146C35.6684 23.3003 35.55 23.1817 35.55 23.0352V13.3028C35.55 13.1563 35.4316 13.0377 35.2854 13.0377H33.0728C32.9266 13.0377 32.8082 12.9191 32.8082 12.7725H32.8054Z" fill="currentColor"/>
<path d="M46.1927 17.7287V23.0616C46.1927 23.2081 46.0744 23.3267 45.9282 23.3267H43.5749C43.4287 23.3267 43.3103 23.2081 43.3103 23.0616V10.9013C43.3103 10.7548 43.4287 10.6362 43.5749 10.6362H45.814C45.9602 10.6362 46.0786 10.7548 46.0786 10.9013V12.2436C46.0786 12.5102 46.4267 12.6092 46.5673 12.3818C46.7748 12.0455 47.0422 11.7469 47.3666 11.486C48.0726 10.9195 48.9526 10.6362 50.0067 10.6362H50.9564C51.1068 10.6362 51.2266 10.7618 51.221 10.9111L51.1402 12.9622C51.1347 13.1046 51.0177 13.2162 50.8756 13.2162H50.1349C48.8593 13.2162 47.8832 13.5957 47.2079 14.3534C46.5325 15.1124 46.1941 16.2371 46.1941 17.7273L46.1927 17.7287Z" fill="currentColor"/>
<path d="M61.4487 19.2495H63.7839C63.9566 19.2495 64.0847 19.4141 64.0415 19.5816C63.7338 20.7787 63.1016 21.729 62.1464 22.4322C61.1048 23.1996 59.8056 23.582 58.2502 23.582C56.3801 23.582 54.8498 22.968 53.6592 21.7415C52.4686 20.515 51.874 18.9299 51.874 16.9876C51.874 15.0454 52.4561 13.4854 53.6216 12.2589C54.7871 11.0324 56.2826 10.4185 58.1109 10.4185C59.9393 10.4185 61.3373 10.9933 62.4597 12.1445C63.582 13.2942 64.1432 14.7816 64.1432 16.6039C64.1432 16.943 64.1306 17.2137 64.107 17.416C64.0916 17.55 63.9789 17.6518 63.8438 17.6518H55.0419C54.8887 17.6518 54.7676 17.7816 54.7773 17.9337C54.833 18.8392 55.1617 19.5997 55.7632 20.2136C56.426 20.8904 57.2462 21.2294 58.2251 21.2294C59.0328 21.2294 59.7026 21.0564 60.2345 20.7118C60.7135 20.4006 61.0352 19.975 61.1995 19.4323C61.2329 19.322 61.3359 19.2481 61.4501 19.2481L61.4487 19.2495ZM60.9641 15.863C61.1201 15.863 61.244 15.7277 61.2287 15.5714C61.1521 14.7914 60.8541 14.1482 60.3347 13.6389C59.7527 13.0682 59.0105 12.7821 58.1096 12.7821C57.2086 12.7821 56.426 13.0682 55.8134 13.6389C55.2689 14.1454 54.9472 14.7872 54.8456 15.563C54.8247 15.7207 54.95 15.8616 55.1088 15.8616H60.9627L60.9641 15.863Z" fill="currentColor"/>
<path d="M75.1035 19.2495H77.4387C77.6114 19.2495 77.7395 19.4141 77.6963 19.5816C77.3886 20.7787 76.7564 21.729 75.8011 22.4322C74.7596 23.1996 73.4604 23.582 71.905 23.582C70.0349 23.582 68.5045 22.968 67.314 21.7415C66.1234 20.515 65.5288 18.9299 65.5288 16.9876C65.5288 15.0454 66.1109 13.4854 67.2764 12.2589C68.4419 11.0324 69.9374 10.4185 71.7657 10.4185C73.5941 10.4185 74.9921 10.9933 76.1144 12.1445C77.2368 13.2942 77.798 14.7816 77.798 16.6039C77.798 16.943 77.7854 17.2137 77.7618 17.416C77.7464 17.55 77.6336 17.6518 77.4986 17.6518H68.6967C68.5435 17.6518 68.4224 17.7816 68.4321 17.9337C68.4878 18.8392 68.8165 19.5997 69.418 20.2136C70.0808 20.8904 70.901 21.2294 71.8799 21.2294C72.6876 21.2294 73.3573 21.0564 73.8893 20.7118C74.3683 20.4006 74.6899 19.975 74.8543 19.4323C74.8877 19.322 74.9907 19.2481 75.1049 19.2481L75.1035 19.2495ZM74.6189 15.863C74.7749 15.863 74.8988 15.7277 74.8835 15.5714C74.8069 14.7914 74.5089 14.1482 73.9895 13.6389C73.4075 13.0682 72.6653 12.7821 71.7643 12.7821C70.8634 12.7821 70.0808 13.0682 69.4681 13.6389C68.9237 14.1454 68.602 14.7872 68.5004 15.563C68.4795 15.7207 68.6048 15.8616 68.7635 15.8616H74.6175L74.6189 15.863Z" fill="currentColor"/>
<path d="M82.5297 17.1788V23.0615C82.5297 23.208 82.4113 23.3266 82.2651 23.3266H79.9118C79.7656 23.3266 79.6472 23.208 79.6472 23.0615V5.13718C79.6472 4.99067 79.7656 4.87207 79.9118 4.87207H82.2651C82.4113 4.87207 82.5297 4.99067 82.5297 5.13718V11.7343C82.5297 11.9729 82.8207 12.0901 82.985 11.9157C83.9305 10.9166 85.135 10.4171 86.5971 10.4171C88.0592 10.4171 89.2331 10.9236 90.1423 11.938C91.0516 12.9524 91.507 14.324 91.507 16.0528V23.0601C91.507 23.2066 91.3886 23.3253 91.2424 23.3253H88.8766C88.7304 23.3253 88.612 23.2066 88.612 23.0601V16.2063C88.612 15.1417 88.3614 14.3254 87.8601 13.7589C87.3588 13.1924 86.6611 12.9091 85.7686 12.9091C84.876 12.9091 84.0809 13.2608 83.4598 13.964C82.8388 14.6673 82.5283 15.7389 82.5283 17.1774L82.5297 17.1788Z" fill="currentColor"/>
<path d="M100.572 15.6329C100.793 15.6077 100.969 15.5184 101.101 15.365C101.233 15.2115 101.299 15.0287 101.299 14.8152V14.6366C101.299 13.9808 101.082 13.4673 100.649 13.0962C100.215 12.725 99.6153 12.5408 98.8508 12.5408C98.0864 12.5408 97.4124 12.732 96.932 13.1157C96.5115 13.4506 96.2761 13.8929 96.2232 14.444C96.2107 14.5808 96.0979 14.6882 95.96 14.6882H93.6151C93.4619 14.6882 93.3408 14.5571 93.3505 14.4036C93.4215 13.2636 93.9312 12.3301 94.8781 11.6018C95.9029 10.8134 97.2272 10.4199 98.8508 10.4199C100.576 10.4199 101.896 10.819 102.811 11.6143C103.725 12.4111 104.183 13.5678 104.183 15.0845V23.063C104.183 23.2095 104.064 23.3281 103.918 23.3281H101.679C101.533 23.3281 101.414 23.2095 101.414 23.063V22.1672C101.414 21.9202 101.107 21.8072 100.949 21.9969C100.646 22.3597 100.254 22.6751 99.7754 22.9388C98.997 23.3685 98.1072 23.5848 97.1033 23.5848C95.8709 23.5848 94.8558 23.2402 94.0621 22.5495C93.267 21.8588 92.8701 20.977 92.8701 19.9039C92.8701 18.8309 93.2099 18.0035 93.8908 17.3477C94.5703 16.6919 95.5701 16.2789 96.8874 16.1087L100.573 15.6356L100.572 15.6329ZM95.7386 19.53C95.7386 20.0756 95.9364 20.5123 96.3318 20.8402C96.7273 21.1681 97.2606 21.3328 97.9318 21.3328C98.9775 21.3328 99.82 21.0244 100.458 20.4063C101.095 19.7881 101.414 19.0068 101.414 18.0607V17.5403C101.414 17.3631 101.244 17.2375 101.075 17.2863C100.799 17.3645 100.398 17.4398 99.8715 17.511L97.6268 17.7789C97.0225 17.8472 96.5574 18.03 96.2302 18.3286C95.9029 18.6272 95.7386 19.0277 95.7386 19.53Z" fill="currentColor"/>
<path d="M109.12 16.6542V23.0601C109.12 23.2066 109.002 23.3252 108.856 23.3252H106.502C106.356 23.3252 106.238 23.2066 106.238 23.0601V10.8998C106.238 10.7533 106.356 10.6347 106.502 10.6347H108.741C108.888 10.6347 109.006 10.7533 109.006 10.8998V11.7217C109.006 11.9617 109.297 12.0761 109.463 11.9031C109.835 11.5124 110.268 11.1943 110.759 10.9487C111.469 10.5957 112.253 10.4185 113.112 10.4185C114.651 10.4185 115.863 10.9208 116.747 11.9268C117.631 12.9328 118.074 14.3337 118.074 16.1309V23.0615C118.074 23.208 117.956 23.3266 117.809 23.3266H115.469C115.322 23.3266 115.204 23.208 115.204 23.0615V16.2593C115.204 15.143 114.959 14.3058 114.47 13.7477C113.981 13.1896 113.295 12.9105 112.411 12.9105C111.39 12.9105 110.587 13.2412 110 13.9012C109.414 14.5612 109.12 15.4793 109.12 16.6556V16.6542Z" fill="currentColor"/>
<path d="M121.675 21.7416C120.553 20.5151 119.991 18.9383 119.991 17.0128C119.991 15.0872 120.56 13.5077 121.694 12.2715C122.829 11.0366 124.247 10.4185 125.947 10.4185C126.797 10.4185 127.611 10.6083 128.39 10.9878C128.906 11.2389 129.335 11.5487 129.678 11.9143C129.839 12.0873 130.13 11.9659 130.13 11.7287V5.13718C130.13 4.99067 130.248 4.87207 130.395 4.87207H132.735C132.882 4.87207 133 4.99067 133 5.13718V23.0615C133 23.208 132.882 23.3266 132.735 23.3266H130.496C130.35 23.3266 130.232 23.208 130.232 23.0615V22.096C130.232 21.8462 129.924 21.7388 129.762 21.9285C129.406 22.3485 128.972 22.6946 128.459 22.968C127.693 23.3769 126.856 23.582 125.947 23.582C124.22 23.582 122.797 22.968 121.675 21.7416ZM122.913 17.0128C122.913 18.2393 123.248 19.2286 123.921 19.9779C124.592 20.7272 125.46 21.1025 126.522 21.1025C127.585 21.1025 128.435 20.7104 129.098 19.9262C129.761 19.1421 130.093 18.1542 130.093 16.9612V16.7058C130.093 15.6328 129.757 14.7314 129.084 14.0031C128.413 13.2747 127.558 12.9105 126.521 12.9105C125.483 12.9105 124.58 13.2831 123.913 14.0282C123.246 14.7733 122.911 15.7682 122.911 17.0128H122.913Z" fill="currentColor"/>
<path d="M0.93728 19.7009C3.06221 18.2609 5.98363 16.3619 8.0821 14.9386C5.84856 13.8614 2.65421 12.3587 0.42067 11.2815C0.0265978 11.0917 -0.119613 10.602 0.107362 10.2266C0.789677 9.0964 1.64188 7.86154 2.32419 6.73132C2.52749 6.39366 2.95916 6.27366 3.30728 6.45924C4.61204 7.15271 7.07951 8.72803 9.3771 9.60849C13.6116 11.2312 15.2784 11.1978 16.3158 12.8261C17.3115 14.3875 16.4843 15.8275 16.3576 19.7832C16.2643 22.6632 16.3033 24.9194 16.3353 27.1896C16.3409 27.6319 16.0151 27.9863 15.5736 27.9891C14.241 28.0003 13.0129 28.0031 11.5396 27.9891C11.1386 27.9849 10.8183 27.5314 10.8183 27.1296C10.8169 24.6864 10.8155 22.2432 10.8128 19.7999C8.69479 21.2134 6.1368 22.9059 4.02162 24.3194C3.67907 24.5482 3.21538 24.4547 2.9898 24.1101L0.733978 20.725C0.509789 20.3846 0.601692 19.9283 0.93728 19.6995V19.7009Z" fill="#FE6200"/>
<path d="M26.6604 8.88556C24.0495 10.6465 22.0792 11.9553 19.4766 13.7106L27.8872 17.7473C28.4442 18.0124 28.4136 18.4659 28.2284 18.777C27.5405 19.9379 26.9877 20.9161 26.2469 22.1342C25.9057 22.6965 25.5701 22.769 25.1955 22.6002C23.519 21.8426 21.9385 21.0416 20.2731 20.2617C19.4892 19.8947 18.9196 19.1831 18.733 18.3361C18.5673 17.5868 18.4016 16.7078 18.2666 15.7241C17.9519 13.4176 18.1064 12.7074 17.4701 11.7516C16.8616 10.8376 16.2043 10.7134 14.2312 9.51486C13.4361 9.03207 12.7426 8.56464 12.1591 8.15023C11.4267 7.62837 11.0215 6.7842 10.9881 5.88561C10.9268 4.23076 10.9783 2.3959 10.9728 0.777327C10.9728 0.348962 11.3306 0.00989788 11.7581 0.00850256C13.1589 0.00292126 14.376 -0.00405537 15.7657 0.00850256C16.157 0.0126885 16.4619 0.38524 16.4647 0.777327C16.4842 3.33217 16.4438 6.41165 16.4633 8.96649C18.9948 7.27815 21.0209 5.94003 23.5594 4.2475C23.9005 4.02006 24.3601 4.11215 24.587 4.45261L26.861 7.85581C27.0893 8.19627 26.9988 8.65812 26.659 8.88696L26.6604 8.88556Z" fill="#FE6200"/>
</g>
<defs>
<clipPath id="clip0_10608_958">
<rect width="133" height="28" fill="white"/>
</clipPath>
</defs>
</svg>
