<svg width="28" height="28" viewBox="0 0 28 28" fill="none" xmlns="http://www.w3.org/2000/svg">
<path d="M0.93728 19.7009C3.06221 18.2609 5.98363 16.3619 8.0821 14.9386C5.84856 13.8614 2.65421 12.3587 0.42067 11.2815C0.0265978 11.0917 -0.119613 10.602 0.107362 10.2266C0.789677 9.0964 1.64188 7.86154 2.32419 6.73132C2.52749 6.39366 2.95916 6.27366 3.30728 6.45924C4.61204 7.15271 7.07951 8.72803 9.3771 9.60849C13.6116 11.2312 15.2784 11.1978 16.3158 12.8261C17.3115 14.3875 16.4843 15.8275 16.3576 19.7832C16.2643 22.6632 16.3033 24.9194 16.3353 27.1896C16.3409 27.6319 16.0151 27.9863 15.5736 27.9891C14.241 28.0003 13.0129 28.0031 11.5396 27.9891C11.1386 27.9849 10.8183 27.5314 10.8183 27.1296C10.8169 24.6864 10.8155 22.2432 10.8128 19.7999C8.69479 21.2134 6.1368 22.9059 4.02162 24.3194C3.67907 24.5482 3.21538 24.4547 2.9898 24.1101L0.733978 20.725C0.509789 20.3846 0.601692 19.9283 0.93728 19.6995V19.7009Z" fill="#FE6200"/>
<path d="M26.6604 8.88556C24.0495 10.6465 22.0792 11.9553 19.4766 13.7106L27.8872 17.7473C28.4442 18.0124 28.4136 18.4659 28.2284 18.777C27.5405 19.9379 26.9877 20.9161 26.2469 22.1342C25.9057 22.6965 25.5701 22.769 25.1955 22.6002C23.519 21.8426 21.9385 21.0416 20.2731 20.2617C19.4892 19.8947 18.9196 19.1831 18.733 18.3361C18.5673 17.5868 18.4016 16.7078 18.2666 15.7241C17.9519 13.4176 18.1064 12.7074 17.4701 11.7516C16.8616 10.8376 16.2043 10.7134 14.2312 9.51486C13.4361 9.03207 12.7426 8.56464 12.1591 8.15023C11.4267 7.62837 11.0215 6.7842 10.9881 5.88561C10.9268 4.23076 10.9783 2.3959 10.9728 0.777327C10.9728 0.348962 11.3306 0.00989788 11.7581 0.00850256C13.1589 0.00292126 14.376 -0.00405537 15.7657 0.00850256C16.157 0.0126885 16.4619 0.38524 16.4647 0.777327C16.4842 3.33217 16.4438 6.41165 16.4633 8.96649C18.9948 7.27815 21.0209 5.94003 23.5594 4.2475C23.9005 4.02006 24.3601 4.11215 24.587 4.45261L26.861 7.85581C27.0893 8.19627 26.9988 8.65812 26.659 8.88696L26.6604 8.88556Z" fill="#FE6200"/>
</svg>
